{
	"asset":{
		"generator":"Khronos glTF Blender I/O v4.2.57",
		"version":"2.0"
	},
	"scene":0,
	"scenes":[
		{
			"name":"Scene",
			"nodes":[
				0,
				1,
				2,
				3,
				4,
				5,
				6,
				7,
				8,
				9,
				10,
				11,
				12,
				13
			]
		}
	],
	"nodes":[
		{
			"mesh":0,
			"name":"Chair Seat",
			"scale":[
				1.2003366947174072,
				0.0662420317530632,
				1.2003366947174072
			],
			"translation":[
				0,
				-0.11878572404384613,
				0
			]
		},
		{
			"mesh":1,
			"name":"Chair Leg1",
			"scale":[
				0.1747758984565735,
				0.1747758984565735,
				0.1747758984565735
			],
			"translation":[
				0.8612452745437622,
				-0.22946855425834656,
				0.7975872755050659
			]
		},
		{
			"mesh":2,
			"name":"Back Rest",
			"rotation":[
				-0.7219613790512085,
				0,
				0,
				0.6919333338737488
			],
			"translation":[
				0.07036489248275757,
				0.8586757183074951,
				0.8802289962768555
			]
		},
		{
			"mesh":3,
			"name":"BackRestD1",
			"rotation":[
				-0.7219613790512085,
				0,
				0,
				0.6919333338737488
			],
			"translation":[
				0.07955249398946762,
				0.853744626045227,
				0.8711374998092651
			]
		},
		{
			"mesh":4,
			"name":"BackRestD2",
			"rotation":[
				-0.7219613790512085,
				0,
				0,
				0.6919333338737488
			],
			"translation":[
				0.07036489248275757,
				0.8586757183074951,
				0.8802289962768555
			]
		},
		{
			"mesh":5,
			"name":"BackRestD3",
			"rotation":[
				-0.7219613790512085,
				0,
				0,
				0.6919333338737488
			],
			"translation":[
				0.07036489248275757,
				0.8586757183074951,
				0.8802289962768555
			]
		},
		{
			"mesh":6,
			"name":"BackRestD4",
			"rotation":[
				-0.7219613790512085,
				0,
				0,
				0.6919333338737488
			],
			"translation":[
				0.07036489248275757,
				0.8586757183074951,
				0.8802289962768555
			]
		},
		{
			"mesh":7,
			"name":"ChairSeatD1",
			"scale":[
				1.2003366947174072,
				0.0662420317530632,
				1.2003366947174072
			],
			"translation":[
				0,
				-0.11878572404384613,
				0
			]
		},
		{
			"mesh":8,
			"name":"ChairSeatD2",
			"scale":[
				1.2003366947174072,
				0.0662420317530632,
				1.2003366947174072
			],
			"translation":[
				0,
				-0.11878572404384613,
				0
			]
		},
		{
			"mesh":9,
			"name":"ChairSeatD3",
			"scale":[
				1.2003366947174072,
				0.0662420317530632,
				1.2003366947174072
			],
			"translation":[
				0,
				-0.11878572404384613,
				0
			]
		},
		{
			"mesh":10,
			"name":"ChairSeatD4",
			"scale":[
				1.2003366947174072,
				0.0662420317530632,
				1.2003366947174072
			],
			"translation":[
				0,
				-0.11878572404384613,
				0
			]
		},
		{
			"mesh":11,
			"name":"Chair Leg2",
			"scale":[
				0.1747758984565735,
				0.1747758984565735,
				0.1747758984565735
			],
			"translation":[
				0.883965015411377,
				-0.2302800714969635,
				-0.9286090135574341
			]
		},
		{
			"mesh":12,
			"name":"Chair Leg4",
			"scale":[
				0.1747758984565735,
				0.1747758984565735,
				0.1747758984565735
			],
			"translation":[
				-0.8410335779190063,
				-0.24939073622226715,
				0.7052820324897766
			]
		},
		{
			"mesh":13,
			"name":"Chair Leg3",
			"scale":[
				0.1747758984565735,
				0.1747758984565735,
				0.1747758984565735
			],
			"translation":[
				-0.8468292355537415,
				-0.26856255531311035,
				-0.89020836353302
			]
		}
	],
	"materials":[
		{
			"doubleSided":true,
			"name":"Material",
			"pbrMetallicRoughness":{
				"baseColorTexture":{
					"index":0
				},
				"metallicFactor":0,
				"roughnessFactor":0.5
			}
		},
		{
			"doubleSided":true,
			"name":"Material.002",
			"pbrMetallicRoughness":{
				"baseColorTexture":{
					"index":1
				},
				"metallicFactor":0,
				"roughnessFactor":0.5
			}
		},
		{
			"doubleSided":true,
			"name":"Material.001",
			"pbrMetallicRoughness":{
				"baseColorTexture":{
					"index":2
				},
				"metallicFactor":0,
				"roughnessFactor":0.5
			}
		}
	],
	"meshes":[
		{
			"name":"Cube",
			"primitives":[
				{
					"attributes":{
						"POSITION":0,
						"NORMAL":1,
						"TEXCOORD_0":2
					},
					"indices":3,
					"material":0
				}
			]
		},
		{
			"name":"Cube.001",
			"primitives":[
				{
					"attributes":{
						"POSITION":4,
						"NORMAL":5,
						"TEXCOORD_0":6
					},
					"indices":7,
					"material":1
				}
			]
		},
		{
			"name":"Plane",
			"primitives":[
				{
					"attributes":{
						"POSITION":8,
						"NORMAL":9,
						"TEXCOORD_0":10
					},
					"indices":11,
					"material":2
				}
			]
		},
		{
			"name":"Plane.001",
			"primitives":[
				{
					"attributes":{
						"POSITION":12,
						"NORMAL":13,
						"TEXCOORD_0":14
					},
					"indices":15
				}
			]
		},
		{
			"name":"Plane.002",
			"primitives":[
				{
					"attributes":{
						"POSITION":16,
						"NORMAL":17,
						"TEXCOORD_0":18
					},
					"indices":19
				}
			]
		},
		{
			"name":"Plane.003",
			"primitives":[
				{
					"attributes":{
						"POSITION":20,
						"NORMAL":21,
						"TEXCOORD_0":22
					},
					"indices":23
				}
			]
		},
		{
			"name":"Plane.004",
			"primitives":[
				{
					"attributes":{
						"POSITION":24,
						"NORMAL":25,
						"TEXCOORD_0":26
					},
					"indices":27
				}
			]
		},
		{
			"name":"Cube.002",
			"primitives":[
				{
					"attributes":{
						"POSITION":28,
						"NORMAL":29,
						"TEXCOORD_0":30
					},
					"indices":31,
					"material":0
				}
			]
		},
		{
			"name":"Cube.003",
			"primitives":[
				{
					"attributes":{
						"POSITION":32,
						"NORMAL":33,
						"TEXCOORD_0":34
					},
					"indices":35,
					"material":0
				}
			]
		},
		{
			"name":"Cube.004",
			"primitives":[
				{
					"attributes":{
						"POSITION":36,
						"NORMAL":37,
						"TEXCOORD_0":38
					},
					"indices":39,
					"material":0
				}
			]
		},
		{
			"name":"Cube.005",
			"primitives":[
				{
					"attributes":{
						"POSITION":40,
						"NORMAL":41,
						"TEXCOORD_0":42
					},
					"indices":43,
					"material":0
				}
			]
		},
		{
			"name":"Cube.007",
			"primitives":[
				{
					"attributes":{
						"POSITION":44,
						"NORMAL":45,
						"TEXCOORD_0":46
					},
					"indices":7,
					"material":1
				}
			]
		},
		{
			"name":"Cube.008",
			"primitives":[
				{
					"attributes":{
						"POSITION":47,
						"NORMAL":48,
						"TEXCOORD_0":49
					},
					"indices":7,
					"material":1
				}
			]
		},
		{
			"name":"Cube.009",
			"primitives":[
				{
					"attributes":{
						"POSITION":50,
						"NORMAL":51,
						"TEXCOORD_0":52
					},
					"indices":7,
					"material":1
				}
			]
		}
	],
	"textures":[
		{
			"sampler":0,
			"source":0
		},
		{
			"sampler":0,
			"source":0
		},
		{
			"sampler":0,
			"source":0
		}
	],
	"images":[
		{
			"mimeType":"image/jpeg",
			"name":"natural texture",
			"uri":"natural%20texture.jpg"
		}
	],
	"accessors":[
		{
			"bufferView":0,
			"componentType":5126,
			"count":93980,
			"max":[
				1,
				1,
				1
			],
			"min":[
				-1,
				-1,
				-1
			],
			"type":"VEC3"
		},
		{
			"bufferView":1,
			"componentType":5126,
			"count":93980,
			"type":"VEC3"
		},
		{
			"bufferView":2,
			"componentType":5126,
			"count":93980,
			"type":"VEC2"
		},
		{
			"bufferView":3,
			"componentType":5125,
			"count":141486,
			"type":"SCALAR"
		},
		{
			"bufferView":4,
			"componentType":5126,
			"count":32,
			"max":[
				1,
				1,
				1
			],
			"min":[
				-1,
				-13.983125686645508,
				-1
			],
			"type":"VEC3"
		},
		{
			"bufferView":5,
			"componentType":5126,
			"count":32,
			"type":"VEC3"
		},
		{
			"bufferView":6,
			"componentType":5126,
			"count":32,
			"type":"VEC2"
		},
		{
			"bufferView":7,
			"componentType":5123,
			"count":60,
			"type":"SCALAR"
		},
		{
			"bufferView":8,
			"componentType":5126,
			"count":24,
			"max":[
				1.0464329719543457,
				-0.09827741980552673,
				1.3982906341552734
			],
			"min":[
				-1.182692527770996,
				-0.30457326769828796,
				-0.9546900391578674
			],
			"type":"VEC3"
		},
		{
			"bufferView":9,
			"componentType":5126,
			"count":24,
			"type":"VEC3"
		},
		{
			"bufferView":10,
			"componentType":5126,
			"count":24,
			"type":"VEC2"
		},
		{
			"bufferView":11,
			"componentType":5123,
			"count":36,
			"type":"SCALAR"
		},
		{
			"bufferView":12,
			"componentType":5126,
			"count":142,
			"max":[
				1.0464329719543457,
				-0.09827741980552673,
				1.3982906341552734
			],
			"min":[
				-1.182692527770996,
				-0.30628299713134766,
				-0.9546900391578674
			],
			"type":"VEC3"
		},
		{
			"bufferView":13,
			"componentType":5126,
			"count":142,
			"type":"VEC3"
		},
		{
			"bufferView":14,
			"componentType":5126,
			"count":142,
			"type":"VEC2"
		},
		{
			"bufferView":15,
			"componentType":5123,
			"count":306,
			"type":"SCALAR"
		},
		{
			"bufferView":16,
			"componentType":5126,
			"count":165,
			"max":[
				1.0464329719543457,
				-0.09827741980552673,
				1.3982908725738525
			],
			"min":[
				-1.182692527770996,
				-0.30457326769828796,
				-0.9546900987625122
			],
			"type":"VEC3"
		},
		{
			"bufferView":17,
			"componentType":5126,
			"count":165,
			"type":"VEC3"
		},
		{
			"bufferView":18,
			"componentType":5126,
			"count":165,
			"type":"VEC2"
		},
		{
			"bufferView":19,
			"componentType":5123,
			"count":384,
			"type":"SCALAR"
		},
		{
			"bufferView":20,
			"componentType":5126,
			"count":141,
			"max":[
				1.0464329719543457,
				-0.09827741980552673,
				1.3982908725738525
			],
			"min":[
				-1.182692527770996,
				-0.30457326769828796,
				-0.9546900987625122
			],
			"type":"VEC3"
		},
		{
			"bufferView":21,
			"componentType":5126,
			"count":141,
			"type":"VEC3"
		},
		{
			"bufferView":22,
			"componentType":5126,
			"count":141,
			"type":"VEC2"
		},
		{
			"bufferView":23,
			"componentType":5123,
			"count":336,
			"type":"SCALAR"
		},
		{
			"bufferView":24,
			"componentType":5126,
			"count":223,
			"max":[
				1.0464329719543457,
				-0.09827741980552673,
				1.3982906341552734
			],
			"min":[
				-1.182692527770996,
				-0.30457326769828796,
				-0.9946626424789429
			],
			"type":"VEC3"
		},
		{
			"bufferView":25,
			"componentType":5126,
			"count":223,
			"type":"VEC3"
		},
		{
			"bufferView":26,
			"componentType":5126,
			"count":223,
			"type":"VEC2"
		},
		{
			"bufferView":27,
			"componentType":5123,
			"count":444,
			"type":"SCALAR"
		},
		{
			"bufferView":28,
			"componentType":5126,
			"count":524,
			"max":[
				1,
				1,
				1
			],
			"min":[
				-1,
				-1,
				-1
			],
			"type":"VEC3"
		},
		{
			"bufferView":29,
			"componentType":5126,
			"count":524,
			"type":"VEC3"
		},
		{
			"bufferView":30,
			"componentType":5126,
			"count":524,
			"type":"VEC2"
		},
		{
			"bufferView":31,
			"componentType":5123,
			"count":780,
			"type":"SCALAR"
		},
		{
			"bufferView":32,
			"componentType":5126,
			"count":24576,
			"max":[
				1,
				1,
				1
			],
			"min":[
				-1,
				-1,
				-1
			],
			"type":"VEC3"
		},
		{
			"bufferView":33,
			"componentType":5126,
			"count":24576,
			"type":"VEC3"
		},
		{
			"bufferView":34,
			"componentType":5126,
			"count":24576,
			"type":"VEC2"
		},
		{
			"bufferView":35,
			"componentType":5123,
			"count":36852,
			"type":"SCALAR"
		},
		{
			"bufferView":36,
			"componentType":5126,
			"count":2392,
			"max":[
				1,
				1,
				1
			],
			"min":[
				-1,
				-1,
				-1
			],
			"type":"VEC3"
		},
		{
			"bufferView":37,
			"componentType":5126,
			"count":2392,
			"type":"VEC3"
		},
		{
			"bufferView":38,
			"componentType":5126,
			"count":2392,
			"type":"VEC2"
		},
		{
			"bufferView":39,
			"componentType":5123,
			"count":3588,
			"type":"SCALAR"
		},
		{
			"bufferView":40,
			"componentType":5126,
			"count":94004,
			"max":[
				1,
				1,
				1
			],
			"min":[
				-1,
				-6.458371162414551,
				-1
			],
			"type":"VEC3"
		},
		{
			"bufferView":41,
			"componentType":5126,
			"count":94004,
			"type":"VEC3"
		},
		{
			"bufferView":42,
			"componentType":5126,
			"count":94004,
			"type":"VEC2"
		},
		{
			"bufferView":43,
			"componentType":5125,
			"count":141534,
			"type":"SCALAR"
		},
		{
			"bufferView":44,
			"componentType":5126,
			"count":32,
			"max":[
				1,
				1,
				1
			],
			"min":[
				-1,
				-13.983125686645508,
				-1
			],
			"type":"VEC3"
		},
		{
			"bufferView":45,
			"componentType":5126,
			"count":32,
			"type":"VEC3"
		},
		{
			"bufferView":46,
			"componentType":5126,
			"count":32,
			"type":"VEC2"
		},
		{
			"bufferView":47,
			"componentType":5126,
			"count":32,
			"max":[
				1,
				1,
				1
			],
			"min":[
				-1,
				-13.983125686645508,
				-1
			],
			"type":"VEC3"
		},
		{
			"bufferView":48,
			"componentType":5126,
			"count":32,
			"type":"VEC3"
		},
		{
			"bufferView":49,
			"componentType":5126,
			"count":32,
			"type":"VEC2"
		},
		{
			"bufferView":50,
			"componentType":5126,
			"count":32,
			"max":[
				1,
				1,
				1
			],
			"min":[
				-1,
				-13.983125686645508,
				-1
			],
			"type":"VEC3"
		},
		{
			"bufferView":51,
			"componentType":5126,
			"count":32,
			"type":"VEC3"
		},
		{
			"bufferView":52,
			"componentType":5126,
			"count":32,
			"type":"VEC2"
		}
	],
	"bufferViews":[
		{
			"buffer":0,
			"byteLength":1127760,
			"byteOffset":0,
			"target":34962
		},
		{
			"buffer":0,
			"byteLength":1127760,
			"byteOffset":1127760,
			"target":34962
		},
		{
			"buffer":0,
			"byteLength":751840,
			"byteOffset":2255520,
			"target":34962
		},
		{
			"buffer":0,
			"byteLength":565944,
			"byteOffset":3007360,
			"target":34963
		},
		{
			"buffer":0,
			"byteLength":384,
			"byteOffset":3573304,
			"target":34962
		},
		{
			"buffer":0,
			"byteLength":384,
			"byteOffset":3573688,
			"target":34962
		},
		{
			"buffer":0,
			"byteLength":256,
			"byteOffset":3574072,
			"target":34962
		},
		{
			"buffer":0,
			"byteLength":120,
			"byteOffset":3574328,
			"target":34963
		},
		{
			"buffer":0,
			"byteLength":288,
			"byteOffset":3574448,
			"target":34962
		},
		{
			"buffer":0,
			"byteLength":288,
			"byteOffset":3574736,
			"target":34962
		},
		{
			"buffer":0,
			"byteLength":192,
			"byteOffset":3575024,
			"target":34962
		},
		{
			"buffer":0,
			"byteLength":72,
			"byteOffset":3575216,
			"target":34963
		},
		{
			"buffer":0,
			"byteLength":1704,
			"byteOffset":3575288,
			"target":34962
		},
		{
			"buffer":0,
			"byteLength":1704,
			"byteOffset":3576992,
			"target":34962
		},
		{
			"buffer":0,
			"byteLength":1136,
			"byteOffset":3578696,
			"target":34962
		},
		{
			"buffer":0,
			"byteLength":612,
			"byteOffset":3579832,
			"target":34963
		},
		{
			"buffer":0,
			"byteLength":1980,
			"byteOffset":3580444,
			"target":34962
		},
		{
			"buffer":0,
			"byteLength":1980,
			"byteOffset":3582424,
			"target":34962
		},
		{
			"buffer":0,
			"byteLength":1320,
			"byteOffset":3584404,
			"target":34962
		},
		{
			"buffer":0,
			"byteLength":768,
			"byteOffset":3585724,
			"target":34963
		},
		{
			"buffer":0,
			"byteLength":1692,
			"byteOffset":3586492,
			"target":34962
		},
		{
			"buffer":0,
			"byteLength":1692,
			"byteOffset":3588184,
			"target":34962
		},
		{
			"buffer":0,
			"byteLength":1128,
			"byteOffset":3589876,
			"target":34962
		},
		{
			"buffer":0,
			"byteLength":672,
			"byteOffset":3591004,
			"target":34963
		},
		{
			"buffer":0,
			"byteLength":2676,
			"byteOffset":3591676,
			"target":34962
		},
		{
			"buffer":0,
			"byteLength":2676,
			"byteOffset":3594352,
			"target":34962
		},
		{
			"buffer":0,
			"byteLength":1784,
			"byteOffset":3597028,
			"target":34962
		},
		{
			"buffer":0,
			"byteLength":888,
			"byteOffset":3598812,
			"target":34963
		},
		{
			"buffer":0,
			"byteLength":6288,
			"byteOffset":3599700,
			"target":34962
		},
		{
			"buffer":0,
			"byteLength":6288,
			"byteOffset":3605988,
			"target":34962
		},
		{
			"buffer":0,
			"byteLength":4192,
			"byteOffset":3612276,
			"target":34962
		},
		{
			"buffer":0,
			"byteLength":1560,
			"byteOffset":3616468,
			"target":34963
		},
		{
			"buffer":0,
			"byteLength":294912,
			"byteOffset":3618028,
			"target":34962
		},
		{
			"buffer":0,
			"byteLength":294912,
			"byteOffset":3912940,
			"target":34962
		},
		{
			"buffer":0,
			"byteLength":196608,
			"byteOffset":4207852,
			"target":34962
		},
		{
			"buffer":0,
			"byteLength":73704,
			"byteOffset":4404460,
			"target":34963
		},
		{
			"buffer":0,
			"byteLength":28704,
			"byteOffset":4478164,
			"target":34962
		},
		{
			"buffer":0,
			"byteLength":28704,
			"byteOffset":4506868,
			"target":34962
		},
		{
			"buffer":0,
			"byteLength":19136,
			"byteOffset":4535572,
			"target":34962
		},
		{
			"buffer":0,
			"byteLength":7176,
			"byteOffset":4554708,
			"target":34963
		},
		{
			"buffer":0,
			"byteLength":1128048,
			"byteOffset":4561884,
			"target":34962
		},
		{
			"buffer":0,
			"byteLength":1128048,
			"byteOffset":5689932,
			"target":34962
		},
		{
			"buffer":0,
			"byteLength":752032,
			"byteOffset":6817980,
			"target":34962
		},
		{
			"buffer":0,
			"byteLength":566136,
			"byteOffset":7570012,
			"target":34963
		},
		{
			"buffer":0,
			"byteLength":384,
			"byteOffset":8136148,
			"target":34962
		},
		{
			"buffer":0,
			"byteLength":384,
			"byteOffset":8136532,
			"target":34962
		},
		{
			"buffer":0,
			"byteLength":256,
			"byteOffset":8136916,
			"target":34962
		},
		{
			"buffer":0,
			"byteLength":384,
			"byteOffset":8137172,
			"target":34962
		},
		{
			"buffer":0,
			"byteLength":384,
			"byteOffset":8137556,
			"target":34962
		},
		{
			"buffer":0,
			"byteLength":256,
			"byteOffset":8137940,
			"target":34962
		},
		{
			"buffer":0,
			"byteLength":384,
			"byteOffset":8138196,
			"target":34962
		},
		{
			"buffer":0,
			"byteLength":384,
			"byteOffset":8138580,
			"target":34962
		},
		{
			"buffer":0,
			"byteLength":256,
			"byteOffset":8138964,
			"target":34962
		}
	],
	"samplers":[
		{
			"magFilter":9729,
			"minFilter":9987
		}
	],
	"buffers":[
		{
			"byteLength":8139220,
			"uri":"ChairModels.bin"
		}
	]
}
